<svg width="40" height="41" viewBox="0 0 40 41" fill="none" xmlns="http://www.w3.org/2000/svg">
<path fill-rule="evenodd" clip-rule="evenodd" d="M13.7951 13.1226C13.0798 13.1226 12.5 13.7024 12.5 14.4177V27.3688C12.5 28.0841 13.0798 28.6639 13.7951 28.6639H16.3853C17.1006 28.6639 17.6804 28.0841 17.6804 27.3688V14.4177C17.6804 13.7024 17.1006 13.1226 16.3853 13.1226H13.7951ZM24.1552 13.1226C23.4399 13.1226 22.8601 13.7024 22.8601 14.4177V27.3688C22.8601 28.0841 23.4399 28.6639 24.1552 28.6639H26.7454C27.4607 28.6639 28.0406 28.0841 28.0406 27.3688V14.4177C28.0406 13.7024 27.4607 13.1226 26.7454 13.1226H24.1552Z" fill="white"/>
</svg>
